<svg width="621" height="350" viewBox="0 0 621 350" fill="none" xmlns="http://www.w3.org/2000/svg">
<path fill-rule="evenodd" clip-rule="evenodd" d="M1.05762 62.22H621V61.5223H1.05762V62.22Z" fill="url(#paint0_linear_1469_1021)" fill-opacity="0.4"/>
<path fill-rule="evenodd" clip-rule="evenodd" d="M283.849 349.667V0L283.151 3.1886e-08V349.667H283.849Z" fill="url(#paint1_linear_1469_1021)" fill-opacity="0.4"/>
<path fill-rule="evenodd" clip-rule="evenodd" d="M1.05762 134.081H621V133.383H1.05762V134.081Z" fill="url(#paint2_linear_1469_1021)" fill-opacity="0.4"/>
<path fill-rule="evenodd" clip-rule="evenodd" d="M354.547 349.667V0L353.85 3.1886e-08V349.667H354.547Z" fill="url(#paint3_linear_1469_1021)" fill-opacity="0.4"/>
<path fill-rule="evenodd" clip-rule="evenodd" d="M1.05804 349.667V0L0.360352 3.1886e-08V349.667H1.05804Z" fill="url(#paint4_linear_1469_1021)" fill-opacity="0.4"/>
<path fill-rule="evenodd" clip-rule="evenodd" d="M1.05762 205.943H621V205.246H1.05762V205.943Z" fill="url(#paint5_linear_1469_1021)" fill-opacity="0.4"/>
<path fill-rule="evenodd" clip-rule="evenodd" d="M425.245 349.667L425.245 0L424.547 3.1886e-08L424.547 349.667H425.245Z" fill="url(#paint6_linear_1469_1021)" fill-opacity="0.4"/>
<path fill-rule="evenodd" clip-rule="evenodd" d="M71.7563 349.667V0L71.0586 3.1886e-08V349.667H71.7563Z" fill="url(#paint7_linear_1469_1021)" fill-opacity="0.4"/>
<path fill-rule="evenodd" clip-rule="evenodd" d="M1.05762 277.804H621V277.106H1.05762V277.804Z" fill="url(#paint8_linear_1469_1021)" fill-opacity="0.4"/>
<path fill-rule="evenodd" clip-rule="evenodd" d="M495.943 349.667L495.943 0L495.245 3.1886e-08L495.245 349.667H495.943Z" fill="url(#paint9_linear_1469_1021)" fill-opacity="0.4"/>
<path fill-rule="evenodd" clip-rule="evenodd" d="M142.454 349.667V0L141.756 3.1886e-08V349.667H142.454Z" fill="url(#paint10_linear_1469_1021)" fill-opacity="0.4"/>
<path fill-rule="evenodd" clip-rule="evenodd" d="M566.64 349.667L566.64 0L565.942 3.1886e-08L565.942 349.667H566.64Z" fill="url(#paint11_linear_1469_1021)" fill-opacity="0.4"/>
<path fill-rule="evenodd" clip-rule="evenodd" d="M213.152 349.667V0L212.454 3.1886e-08V349.667H213.152Z" fill="url(#paint12_linear_1469_1021)" fill-opacity="0.4"/>
<rect width="69.9993" height="71.1642" transform="matrix(-1 0 0 1 495.245 62.2202)" fill="#CBCBCB" fill-opacity="0.1"/>
<rect width="70.0027" height="71.1646" transform="matrix(-1 0 0 1 424.547 134.081)" fill="#CBCBCB" fill-opacity="0.08"/>
<defs>
<linearGradient id="paint0_linear_1469_1021" x1="383.601" y1="7.03675e-06" x2="269.126" y2="325.307" gradientUnits="userSpaceOnUse">
<stop stop-color="#BFBFC4"/>
<stop offset="1" stop-color="#CBCBCB" stop-opacity="0"/>
</linearGradient>
<linearGradient id="paint1_linear_1469_1021" x1="383.601" y1="7.03675e-06" x2="269.126" y2="325.307" gradientUnits="userSpaceOnUse">
<stop stop-color="#BFBFC4"/>
<stop offset="1" stop-color="#CBCBCB" stop-opacity="0"/>
</linearGradient>
<linearGradient id="paint2_linear_1469_1021" x1="383.601" y1="7.03675e-06" x2="269.126" y2="325.307" gradientUnits="userSpaceOnUse">
<stop stop-color="#BFBFC4"/>
<stop offset="1" stop-color="#CBCBCB" stop-opacity="0"/>
</linearGradient>
<linearGradient id="paint3_linear_1469_1021" x1="383.601" y1="7.03675e-06" x2="269.126" y2="325.307" gradientUnits="userSpaceOnUse">
<stop stop-color="#BFBFC4"/>
<stop offset="1" stop-color="#CBCBCB" stop-opacity="0"/>
</linearGradient>
<linearGradient id="paint4_linear_1469_1021" x1="383.601" y1="7.03675e-06" x2="269.126" y2="325.307" gradientUnits="userSpaceOnUse">
<stop stop-color="#BFBFC4"/>
<stop offset="1" stop-color="#CBCBCB" stop-opacity="0"/>
</linearGradient>
<linearGradient id="paint5_linear_1469_1021" x1="383.601" y1="7.03675e-06" x2="269.126" y2="325.307" gradientUnits="userSpaceOnUse">
<stop stop-color="#BFBFC4"/>
<stop offset="1" stop-color="#CBCBCB" stop-opacity="0"/>
</linearGradient>
<linearGradient id="paint6_linear_1469_1021" x1="383.601" y1="7.03675e-06" x2="269.126" y2="325.307" gradientUnits="userSpaceOnUse">
<stop stop-color="#BFBFC4"/>
<stop offset="1" stop-color="#CBCBCB" stop-opacity="0"/>
</linearGradient>
<linearGradient id="paint7_linear_1469_1021" x1="383.601" y1="7.03675e-06" x2="269.126" y2="325.307" gradientUnits="userSpaceOnUse">
<stop stop-color="#BFBFC4"/>
<stop offset="1" stop-color="#CBCBCB" stop-opacity="0"/>
</linearGradient>
<linearGradient id="paint8_linear_1469_1021" x1="383.601" y1="7.03675e-06" x2="269.126" y2="325.307" gradientUnits="userSpaceOnUse">
<stop stop-color="#BFBFC4"/>
<stop offset="1" stop-color="#CBCBCB" stop-opacity="0"/>
</linearGradient>
<linearGradient id="paint9_linear_1469_1021" x1="383.601" y1="7.03675e-06" x2="269.126" y2="325.307" gradientUnits="userSpaceOnUse">
<stop stop-color="#BFBFC4"/>
<stop offset="1" stop-color="#CBCBCB" stop-opacity="0"/>
</linearGradient>
<linearGradient id="paint10_linear_1469_1021" x1="383.601" y1="7.03675e-06" x2="269.126" y2="325.307" gradientUnits="userSpaceOnUse">
<stop stop-color="#BFBFC4"/>
<stop offset="1" stop-color="#CBCBCB" stop-opacity="0"/>
</linearGradient>
<linearGradient id="paint11_linear_1469_1021" x1="383.601" y1="7.03675e-06" x2="269.126" y2="325.307" gradientUnits="userSpaceOnUse">
<stop stop-color="#BFBFC4"/>
<stop offset="1" stop-color="#CBCBCB" stop-opacity="0"/>
</linearGradient>
<linearGradient id="paint12_linear_1469_1021" x1="383.601" y1="7.03675e-06" x2="269.126" y2="325.307" gradientUnits="userSpaceOnUse">
<stop stop-color="#BFBFC4"/>
<stop offset="1" stop-color="#CBCBCB" stop-opacity="0"/>
</linearGradient>
</defs>
</svg>
